<?xml version="1.0" encoding="utf-8"?>
<!-- Generator: Adobe Illustrator 17.0.0, SVG Export Plug-In . SVG Version: 6.00 Build 0)  -->
<!DOCTYPE svg PUBLIC "-//W3C//DTD SVG 1.1//EN" "http://www.w3.org/Graphics/SVG/1.1/DTD/svg11.dtd">
<svg version="1.1" id="Layer_1" xmlns="http://www.w3.org/2000/svg" xmlns:xlink="http://www.w3.org/1999/xlink" x="0px" y="0px"
	 width="141.73px" height="141.73px" viewBox="0 0 141.73 141.73" enable-background="new 0 0 141.73 141.73" xml:space="preserve">
<g>
	<path fill="#FFFFFF" d="M89.006,56c-1.465-1.532-1.891-2.004-4.604-4.717l-1.289-1.289L72.804,60.302l2.162,2.162
		c2.174,2.174,2.417,2.36,4.011,3.834c1.595,1.474,3.031,2.445,4.295,2.977c1.745,0.735,3.215,0.917,4.387,0.501
		c1.186-0.42,2.297-1.142,3.347-2.192c0.804-0.804,1.383-1.83,1.748-3.099c0.359-1.246,0.183-2.637-0.548-4.144
		C91.549,58.985,90.47,57.532,89.006,56z"/>
	<path fill="#FFFFFF" d="M70.865,1.02c-38.848,0-70.34,31.492-70.34,70.34s31.492,70.34,70.34,70.34s70.34-31.492,70.34-70.34
		C141.205,32.512,109.713,1.02,70.865,1.02z M113.173,74.003c-0.581,2.591-1.896,4.894-3.917,6.915
		c-2.356,2.356-5.123,3.74-8.283,4.18c-3.172,0.441-6.509-0.099-10.008-1.588l-0.257,0.257c2.877,4.15,3.023,6.911,3.086,10.948
		c0.063,4.038-1.53,7.672-4.78,10.922c-2.356,2.356-4.972,3.94-7.869,4.749c-2.909,0.821-5.876,0.914-8.923,0.324
		c-3.542-0.682-6.891-1.976-10.035-3.893c-3.145-1.916-6.665-4.833-10.546-8.714L28.253,74.716l48.713-48.713l20.796,20.796
		c4.323,4.323,8.674,8.932,10.414,11.196c1.739,2.262,3.161,4.829,4.227,7.688C113.511,68.657,113.75,71.434,113.173,74.003z"/>
	<path fill="#FFFFFF" d="M71.662,76.046c-1.87-1.913-2.184-2.251-4.246-4.313l-3.022-3.022L52.586,80.52l1.007,1.007
		c3.881,3.881,5.029,5.005,6.732,6.665c1.69,1.648,3.523,2.908,5.479,3.782c2,0.894,3.706,1.159,5.15,0.795
		c1.445-0.364,2.754-1.133,3.938-2.317c1.541-1.541,2.062-2.738,2.249-4.237c0.186-1.501-0.304-3.258-1.467-5.241
		C74.877,79.612,73.543,77.97,71.662,76.046z"/>
</g>
<g>
	<path fill="#7C91A6" d="M89.006,55.009c-1.465-1.532-1.891-2.004-4.604-4.717l-1.289-1.289L72.804,59.311l2.162,2.162
		c2.174,2.174,2.417,2.36,4.011,3.834c1.595,1.474,3.031,2.445,4.295,2.977c1.745,0.735,3.215,0.917,4.387,0.501
		c1.186-0.42,2.297-1.142,3.347-2.192c0.804-0.804,1.383-1.83,1.748-3.099c0.359-1.246,0.183-2.637-0.548-4.144
		C91.549,57.994,90.47,56.541,89.006,55.009z"/>
	<path fill="#7C91A6" d="M70.865,0.029c-38.848,0-70.34,31.492-70.34,70.34s31.492,70.34,70.34,70.34s70.34-31.492,70.34-70.34
		C141.205,31.522,109.713,0.029,70.865,0.029z M113.173,73.012c-0.581,2.591-1.896,4.894-3.917,6.915
		c-2.356,2.356-5.123,3.74-8.283,4.18c-3.172,0.441-6.509-0.099-10.008-1.588l-0.257,0.257c2.877,4.15,3.023,6.911,3.086,10.948
		c0.063,4.038-1.53,7.672-4.78,10.922c-2.356,2.356-4.972,3.94-7.869,4.749c-2.909,0.821-5.876,0.914-8.923,0.324
		c-3.542-0.682-6.891-1.976-10.035-3.893c-3.145-1.916-6.665-4.833-10.546-8.714L28.253,73.726l48.713-48.713l20.796,20.796
		c4.323,4.323,8.674,8.932,10.414,11.196c1.739,2.262,3.161,4.829,4.227,7.688C113.511,67.666,113.75,70.444,113.173,73.012z"/>
	<path fill="#7C91A6" d="M71.662,75.055c-1.87-1.913-2.184-2.251-4.246-4.313l-3.022-3.022L52.586,79.529l1.007,1.007
		c3.881,3.881,5.029,5.005,6.732,6.665c1.69,1.648,3.523,2.908,5.479,3.782c2,0.894,3.706,1.159,5.15,0.795
		c1.445-0.364,2.754-1.133,3.938-2.317c1.541-1.541,2.062-2.738,2.249-4.237c0.186-1.501-0.304-3.258-1.467-5.241
		C74.877,78.622,73.543,76.979,71.662,75.055z"/>
</g>
</svg>
