<?xml version="1.0" encoding="UTF-8"?>
<svg width="20" height="20" xmlns="http://www.w3.org/2000/svg" xmlns:svg="http://www.w3.org/2000/svg">
 <g>
  <title>Layer 1</title>
  <g id="svg_1">
   <g id="svg_2">
    <path d="m16.036089,9.83911c0,-0.133268 -0.053308,-0.23322 -0.159922,-0.299853l-5.41736,-3.858119c-0.133266,-0.079961 -0.266536,-0.093288 -0.399805,-0.039981c-0.133267,0.093288 -0.199902,0.206566 -0.199902,0.339834l0,1.819112l-4.877621,0c-0.106616,0 -0.193239,0.036649 -0.259874,0.109947s-0.099951,0.163254 -0.099951,0.269867l0,3.358364c0,0.106614 0.033318,0.193238 0.099951,0.259871s0.153258,0.099953 0.259874,0.099953l4.877621,0l0,1.819113c0,0.159922 0.066634,0.273201 0.199902,0.339833c0.133269,0.053308 0.266539,0.039981 0.399805,-0.040077l5.41736,-3.878109c0.106613,-0.066537 0.159922,-0.166489 0.159922,-0.299756zm-6.037056,-9.835204c1.372663,0 2.668697,0.263205 3.888103,0.789615s2.278888,1.239396 3.178449,2.138957s1.612551,1.959045 2.138958,3.178451s0.789618,2.515441 0.789618,3.888104c0,0.919551 -0.119944,1.805785 -0.359825,2.658702c-0.239981,0.852821 -0.576385,1.649098 -1.009508,2.388836c-0.433123,0.739639 -0.952869,1.412644 -1.559242,2.019013c-0.606302,0.606373 -1.279374,1.126219 -2.019013,1.559242c-0.739704,0.433123 -1.535917,0.769627 -2.388901,1.009508c-0.852852,0.239882 -1.739086,0.359825 -2.658637,0.359825s-1.805787,-0.119944 -2.658704,-0.359825c-0.852917,-0.239981 -1.649196,-0.576385 -2.388835,-1.009508s-1.412644,-0.952869 -2.019015,-1.559242c-0.606371,-0.606302 -1.126117,-1.279374 -1.559239,-2.019013c-0.433122,-0.739704 -0.769625,-1.535917 -1.009508,-2.388868c-0.239883,-0.852884 -0.359825,-1.739119 -0.359825,-2.658669s0.119942,-1.805787 0.359825,-2.658704s0.576386,-1.649196 1.009508,-2.388835s0.952869,-1.412644 1.559239,-2.019015s1.279377,-1.126117 2.019015,-1.559239s1.535918,-0.769625 2.388835,-1.009508s1.739152,-0.359824 2.658704,-0.359824l0,0z" fill="#010002" id="svg_3"/>
   </g>
  </g>
  <g id="svg_4"/>
  <g id="svg_5"/>
  <g id="svg_6"/>
  <g id="svg_7"/>
  <g id="svg_8"/>
  <g id="svg_9"/>
  <g id="svg_10"/>
  <g id="svg_11"/>
  <g id="svg_12"/>
  <g id="svg_13"/>
  <g id="svg_14"/>
  <g id="svg_15"/>
  <g id="svg_16"/>
  <g id="svg_17"/>
  <g id="svg_18"/>
 </g>

</svg>