<?xml version="1.0" encoding="UTF-8"?>
<svg width="20" height="20" xmlns="http://www.w3.org/2000/svg" xmlns:svg="http://www.w3.org/2000/svg">
 <g>
  <title>Layer 1</title>
  <g id="svg_1">
   <path d="m12.681498,13.810109c-1.556388,-1.444403 -3.689775,-1.615226 -5.396106,0.030368c-0.087942,0.084146 -0.136026,0.134129 0.02594,0.294828l2.676225,2.623081l2.649654,-2.542099c0.272683,-0.273317 0.134759,-0.315707 0.044287,-0.406178z" id="svg_2"/>
   <path d="m16.58322,10.594209c-3.663201,-3.609425 -9.580002,-3.593608 -13.220428,0.048083c-0.086044,0.085412 -0.086044,0.225234 0.000633,0.310645l1.899298,1.900562c0.085411,0.085412 0.223968,0.085412 0.310012,0c2.438339,-2.438972 6.40839,-2.440237 8.847995,0c0.084145,0.085412 0.2246,0.085412 0.310011,0l1.900564,-1.900562l0.006325,-0.007592c0.086679,-0.086677 0.086679,-0.227132 0.001266,-0.311278l-0.055676,-0.039859l0,0.000001z" id="svg_3"/>
   <path d="m19.933878,7.339716l-0.05694,-0.039226c-5.480251,-5.42774 -14.351656,-5.409393 -19.809131,0.047451c-0.085411,0.085411 -0.085411,0.2246 0.001898,0.312542l1.953708,1.953708c0.086677,0.086677 0.225233,0.085411 0.310645,0c4.225653,-4.226285 11.100959,-4.224388 15.32598,0.000632c0.084145,0.084779 0.2246,0.085412 0.310013,0.000633l1.953705,-1.954973l0.008224,-0.008225c0.085411,-0.086044 0.087311,-0.227764 0.001898,-0.312542l0,0z" id="svg_4"/>
   <g id="svg_5"/>
   <g id="svg_6"/>
   <g id="svg_7"/>
   <g id="svg_8"/>
   <g id="svg_9"/>
   <g id="svg_10"/>
   <g id="svg_11"/>
   <g id="svg_12"/>
   <g id="svg_13"/>
   <g id="svg_14"/>
   <g id="svg_15"/>
   <g id="svg_16"/>
   <g id="svg_17"/>
   <g id="svg_18"/>
   <g id="svg_19"/>
  </g>
  <g id="svg_20"/>
  <g id="svg_21"/>
  <g id="svg_22"/>
  <g id="svg_23"/>
  <g id="svg_24"/>
  <g id="svg_25"/>
  <g id="svg_26"/>
  <g id="svg_27"/>
  <g id="svg_28"/>
  <g id="svg_29"/>
  <g id="svg_30"/>
  <g id="svg_31"/>
  <g id="svg_32"/>
  <g id="svg_33"/>
  <g id="svg_34"/>
 </g>

</svg>