<?xml version="1.0" encoding="UTF-8"?>
<svg width="20" height="20" xmlns="http://www.w3.org/2000/svg" xmlns:svg="http://www.w3.org/2000/svg">
 <metadata id="metadata7">image/svg+xml</metadata>

 <g>
  <title>Layer 1</title>
  <g id="layer1">
   <path id="path3281" d="m18.433651,6.305461l0,0.143315l0.245089,0l0,0.67504l0.155781,0l0,-0.672964l0.240936,0l0,-0.14747l-0.641806,0.002078zm0.787197,0.006231l0,0.810047l0.124624,0l0,-0.62519l0.19451,0.543232l0.131182,-0.000914l0.201878,-0.53401l0,0.627266l0.126699,0l0,-0.822508l-0.232628,0l-0.164032,0.578125l-0.168297,-0.576048l-0.213936,0zm-19.218895,4.868594l0,-2.293059c0,0 -0.024925,-0.988671 0.963749,-1.977345c0.988673,-0.988674 1.927497,-0.880668 1.927497,-0.880668l1.296076,0c0,0 1.628403,-2.442604 4.851977,-2.442604c3.223574,0 5.067991,2.409373 5.067991,2.409373l1.462236,0c0,0 0.369142,-0.016714 0.833097,0.216281c0.468939,0.235502 0.890799,0.506862 1.320333,1.173507c0.430754,0.668542 0.488573,1.15015 0.488573,1.501457c0,0 0,2.509071 0,2.509071c0,0.523103 -0.04985,0.930515 -0.930517,1.811183c-0.880667,0.880666 -2.010577,0.780969 -2.010577,0.780969l-1.345927,0c0,0 -1.681082,2.423 -4.835361,2.423c-3.154791,0 -4.768893,-2.406384 -4.768893,-2.406384l-1.495473,0c0,0 -0.988674,0.058157 -1.944114,-0.897283c-0.95544,-0.955441 -0.86405,-1.927497 -0.880667,-1.927497l0,0zm1.586862,-3.298349l0.930517,4.012852l1.021905,0l0.45695,-2.309675l0.440334,2.309675l1.04683,0l0.930516,-3.987927l-1.113295,0l-0.32402,2.185051l-0.45695,-2.193358l-1.005289,0l-0.456949,2.218284l-0.340636,-2.226593l-1.129912,-0.008309zm5.352897,1.122551l0,2.886608l0.982043,0l0,-2.886608l-0.982043,0zm1.130836,-0.815391c0,0.279258 -0.277306,0.505899 -0.618983,0.505899c-0.341679,0 -0.618983,-0.226642 -0.618983,-0.505899c0,-0.279258 0.277304,-0.5059 0.618983,-0.5059c0.341678,0 0.618983,0.226642 0.618983,0.5059zm0.23807,5.231602c0,0 1.226065,-0.930421 1.226065,-2.315237c0,0 0,-2.333092 0,-2.333092c0,-0.375127 0.192342,-0.906554 0.767777,-1.48199c0.575437,-0.575435 1.082524,-0.666598 1.434377,-0.666598c0,0 3.654384,0 3.654384,0c0.621149,0.008658 1.103806,0.269021 1.547457,0.684453c0.411089,0.431928 0.678503,0.973196 0.678503,1.565315l0,2.231912c0,0.439358 -0.117811,1.076047 -0.702311,1.612929c-0.584494,0.53688 -1.034919,0.702308 -1.499843,0.702308c0,0 -7.106409,0 -7.106409,0zm6.7493,-4.413235l0,2.886607l0.982041,0l0,-2.886607l-0.982041,0zm1.130836,-0.815392c0,0.279256 -0.277305,0.5059 -0.618984,0.5059c-0.34168,0 -0.618983,-0.226645 -0.618983,-0.5059c0,-0.279258 0.277304,-0.5059 0.618983,-0.5059c0.34168,0 0.618984,0.226642 0.618984,0.5059zm-5.261357,3.681168l1.101077,0l0,-1.202256l2.09502,0l0,-0.898718l-2.100974,0l0,-0.94038l2.374756,0l0,-0.934426l-3.475832,0l0.005953,3.97578z" stroke-width="1px" fill-rule="evenodd" fill="#000000"/>
   <path d="m2.52556,11.834441c-0.029466,-0.087835 -0.893202,-3.84911 -0.893202,-3.889593c0,-0.031911 0.130206,-0.042081 0.538692,-0.042081c0.296281,0 0.538626,0.011361 0.538546,0.02525c-0.000243,0.042624 0.30447,2.03981 0.324907,2.129519c0.017799,0.078123 0.020933,0.079332 0.043633,0.016832c0.013452,-0.037035 0.121662,-0.541168 0.240468,-1.120296l0.216011,-1.052962l0.486764,0.009245l0.486764,0.009245l0.220504,1.066396c0.121276,0.586517 0.229763,1.075655 0.241078,1.086971c0.027042,0.027042 0.032183,-0.002436 0.200878,-1.151735l0.144548,-0.984797l0.532217,0c0.292719,0 0.532217,0.009628 0.532217,0.021399c0,0.024324 -0.869539,3.768304 -0.896222,3.858871c-0.015525,0.052691 -0.070251,0.058919 -0.517845,0.058919c-0.447507,0 -0.502349,-0.006238 -0.518078,-0.058919c-0.009676,-0.032407 -0.10942,-0.542726 -0.221654,-1.13404c-0.112233,-0.591315 -0.211037,-1.082096 -0.219563,-1.090622c-0.026319,-0.026319 -0.042361,0.045603 -0.261527,1.172527l-0.212806,1.094219l-0.495955,0.00932c-0.378998,0.007123 -0.499356,-0.000816 -0.510377,-0.033669l0,0z" id="path2814" fill="#ffffff"/>
   <path d="m6.951946,10.444721l0,-1.430902l0.471355,0l0.471355,0l0,1.430902l0,1.430902l-0.471355,0l-0.471355,0l0,-1.430902z" id="path2816" fill="#ffffff"/>
   <path d="m7.231606,8.641731c-0.059138,-0.01808 -0.160116,-0.082474 -0.224395,-0.143097c-0.222909,-0.210231 -0.187426,-0.507453 0.081856,-0.685656c0.116484,-0.077086 0.17982,-0.094355 0.347751,-0.094821c0.776538,-0.002148 0.827606,0.895998 0.05382,0.946551c-0.08333,0.005444 -0.199893,-0.004896 -0.259031,-0.022978z" id="path2818" fill="#ffffff"/>
   <path d="m8.642522,13.127165c0.39475,-0.413178 0.643058,-0.815527 0.803558,-1.302045c0.075204,-0.22796 0.078408,-0.28585 0.097828,-1.767584c0.021579,-1.646469 0.018916,-1.621131 0.210538,-2.003263c0.111952,-0.223253 0.383321,-0.569091 0.626722,-0.798704c0.26945,-0.254186 0.542475,-0.427243 0.846648,-0.53665l0.218843,-0.078713l2.087433,0c2.29698,0 2.263143,-0.002666 2.72713,0.214781c0.588745,0.275914 1.132771,0.939796 1.279261,1.561098c0.074017,0.313932 0.073263,2.919653 -0.000929,3.208366c-0.153637,0.59788 -0.580418,1.131684 -1.201494,1.502805c-0.471508,0.281749 -0.173122,0.263437 -4.292836,0.263437l-3.654475,0l0.251775,-0.26353l-0.000002,0zm7.399858,-2.682444l0,-1.464571l-0.505025,0l-0.505024,0l0,1.464571l0,1.464571l0.505024,0l0.505025,0l0,-1.464571zm-4.006523,0.841706l0,-0.589194l1.060551,0l1.060549,0l0,-0.471355l0,-0.471357l-1.060549,0l-1.060551,0l0,-0.454521l0,-0.454521l1.195221,0l1.195225,0l0,-0.488189l0,-0.488192l-1.77287,0l-1.772873,0l0.022122,0.560905c0.012166,0.308498 0.02212,1.209966 0.02212,2.003262l0,1.442359l0.555527,0l0.555528,0l0,-0.589195zm3.779899,-2.611238c0.362309,-0.100616 0.511592,-0.543915 0.266574,-0.791621c-0.28523,-0.28836 -0.776047,-0.280227 -1.02615,0.017002c-0.170226,0.202302 -0.161592,0.434568 0.023019,0.619178c0.173757,0.173757 0.456067,0.233335 0.736557,0.155441l0,0z" id="path2820" fill="#ffffff"/>
  </g>
 </g>
</svg>