<?xml version="1.0" encoding="UTF-8"?>
<svg width="20" height="20" xmlns="http://www.w3.org/2000/svg" xmlns:svg="http://www.w3.org/2000/svg">
 <g>
  <title>Layer 1</title>
  <g id="svg_1">
   <path d="m9.940329,7.340487c-1.520767,0 -2.625277,1.150536 -2.625277,2.734736c0,1.60234 1.07932,2.720761 2.625277,2.720761s2.625645,-1.118422 2.625645,-2.720761c0,-1.5842 -1.104386,-2.734736 -2.625645,-2.734736z" id="svg_2"/>
   <path d="m9.999104,0.003855c-5.521442,0 -9.997149,4.476135 -9.997149,9.996903c0,5.520462 4.475707,9.996108 9.997149,9.996108c5.520094,0 9.996658,-4.475585 9.996658,-9.996108c0,-5.520768 -4.476565,-9.996903 -9.996658,-9.996903zm4.129559,14.169364c-0.768965,0 -1.374048,-0.576096 -1.523403,-1.392557c-0.002635,0.003125 -0.005271,0.005761 -0.007906,0.008519c-0.679179,0.700078 -1.622565,1.084958 -2.657024,1.084958c-1.033969,0 -1.977722,-0.38488 -2.656779,-1.084958c-0.675012,-0.696033 -1.046654,-1.659461 -1.046654,-2.713959c0,-1.054193 0.371336,-2.019888 1.045735,-2.719415c0.679914,-0.705348 1.623974,-1.0936 2.657698,-1.0936c1.034214,0 1.977906,0.388252 2.658066,1.0936c0.000735,0.000797 0.00141,0.001594 0.002146,0.002329c0.074585,-0.209294 0.274012,-0.359631 0.509231,-0.359631c0.29724,0 0.539384,0.241163 0.539384,0.539016l0,4.847165c0,0.461122 0.246924,0.710252 0.479507,0.710252c0.713562,0 1.212803,-1.202812 1.212803,-2.924356c0,-3.16699 -2.223789,-5.465303 -5.288982,-5.465303c-3.127031,0 -5.395742,2.281153 -5.395742,5.424486c0,2.993549 2.194738,5.165734 5.219788,5.165734c0.668394,0 1.604977,-0.229518 2.177701,-0.534543c0.26335,-0.139671 0.59013,-0.039775 0.729925,0.223022c0.139427,0.262614 0.039592,0.589518 -0.223696,0.729129c-0.719017,0.383101 -1.848653,0.660914 -2.683929,0.660914c-1.752799,0 -3.354037,-0.62886 -4.506963,-1.770818c-1.154886,-1.143793 -1.791103,-2.732896 -1.791103,-4.473438c0,-1.812431 0.651416,-3.466069 1.83523,-4.656135c1.185897,-1.190861 2.833223,-1.846629 4.63879,-1.846629c1.77707,0 3.399022,0.66159 4.564082,1.861645c1.162794,1.196623 1.802812,2.859393 1.802812,4.681937c0,2.431672 -0.899568,4.002635 -2.290714,4.002635z" id="svg_3"/>
  </g>
  <g id="svg_4"/>
  <g id="svg_5"/>
  <g id="svg_6"/>
  <g id="svg_7"/>
  <g id="svg_8"/>
  <g id="svg_9"/>
  <g id="svg_10"/>
  <g id="svg_11"/>
  <g id="svg_12"/>
  <g id="svg_13"/>
  <g id="svg_14"/>
  <g id="svg_15"/>
  <g id="svg_16"/>
  <g id="svg_17"/>
  <g id="svg_18"/>
 </g>

</svg>