<?xml version="1.0" encoding="UTF-8"?>
<svg width="20" height="20" xmlns="http://www.w3.org/2000/svg" xmlns:svg="http://www.w3.org/2000/svg">
 <g>
  <title>Layer 1</title>
  <g id="svg_1">
   <path d="m18.93561,0.001953l-17.869968,0c-0.587369,0 -1.063689,0.47632 -1.063689,1.063689l0,17.869968c0,0.58737 0.47632,1.063688 1.063689,1.063688l17.869968,0c0.587582,0 1.063688,-0.476318 1.063688,-1.063688l0,-17.869968c0,-0.587369 -0.476107,-1.063689 -1.063688,-1.063689zm-12.320067,18.20035c-3.095971,0 -4.588965,-1.475334 -4.588965,-3.059381c0,-0.769473 0.383566,-1.859754 1.643186,-2.609015c1.323016,-0.813084 3.117034,-0.919453 4.078181,-0.985614c-0.300173,-0.385056 -0.640553,-0.790959 -0.640553,-1.45385c0,-0.363357 0.106794,-0.577158 0.212525,-0.834357c-0.235075,0.021912 -0.468874,0.042973 -0.682462,0.042973c-2.262253,0 -3.542933,-1.691265 -3.542933,-3.359553c0,-0.982849 0.4476,-2.074619 1.365351,-2.866215c1.217711,-1.005399 2.880682,-1.278128 4.034783,-1.278128l4.206038,0l-1.388113,0.872012l-1.322591,0c0.490787,0.406116 1.514054,1.261747 1.514054,2.888553c0,1.581917 -0.895413,2.332455 -1.791464,3.037894c-0.277837,0.277411 -0.598432,0.576944 -0.598432,1.048584c0,0.469512 0.320809,0.726074 0.55482,0.920091l0.769472,0.597581c0.939025,0.791384 1.792954,1.518522 1.792954,2.995985c-0.000853,2.011222 -1.944424,4.042441 -5.615852,4.042441l0,0zm11.35892,-8.463345l-2.145888,0l0,2.152267l-1.056241,0l0,-2.152267l-2.135675,0l0,-1.067944l2.135675,0l0,-2.139077l1.056241,0l0,2.139077l2.146098,0l0,1.067944l-0.00021,0z" id="svg_2"/>
   <path d="m9.626208,6.543426c0,-1.54086 -0.918389,-3.936286 -2.689005,-3.936286c-0.556522,0 -1.153039,0.278048 -1.495333,0.706289c-0.363143,0.449728 -0.468874,1.025608 -0.468874,1.583407c0,1.432576 0.832017,3.806728 2.668581,3.806728c0.533333,0 1.107726,-0.255285 1.451084,-0.598005c0.490999,-0.493765 0.533547,-1.176865 0.533547,-1.562133z" id="svg_3"/>
   <path d="m8.473168,12.169486c-0.17019,-0.021699 -0.276984,-0.021699 -0.49036,-0.021699c-0.192315,0 -1.345352,0.04191 -2.241617,0.343572c-0.469725,0.169977 -1.835289,0.683739 -1.835289,2.202686c0,1.519162 1.472571,2.611567 3.756523,2.611567c2.049727,0 3.138945,-0.986465 3.138945,-2.310757c0,-1.093898 -0.704801,-1.669778 -2.328202,-2.82537z" id="svg_4"/>
  </g>
  <g id="svg_5"/>
  <g id="svg_6"/>
  <g id="svg_7"/>
  <g id="svg_8"/>
  <g id="svg_9"/>
  <g id="svg_10"/>
  <g id="svg_11"/>
  <g id="svg_12"/>
  <g id="svg_13"/>
  <g id="svg_14"/>
  <g id="svg_15"/>
  <g id="svg_16"/>
  <g id="svg_17"/>
  <g id="svg_18"/>
  <g id="svg_19"/>
 </g>

</svg>