<?xml version="1.0" encoding="UTF-8"?>
<svg width="20" height="20" xmlns="http://www.w3.org/2000/svg" xmlns:svg="http://www.w3.org/2000/svg">
 <g>
  <title>Layer 1</title>
  <g id="svg_1">
   <path d="m18.93763,0l-17.873718,0c-0.587705,0 -1.063912,0.47642 -1.063912,1.063912l0,17.873718c0,0.587492 0.476207,1.063911 1.063912,1.063911l17.873718,0c0.587704,0 1.063911,-0.476419 1.063911,-1.063911l0,-17.873718c0,-0.587492 -0.476208,-1.063912 -1.063911,-1.063912zm-3.006827,11.265336c0.545148,0.531956 1.121575,1.032845 1.611186,1.620764c0.216614,0.259595 0.420887,0.527699 0.576427,0.829638c0.221508,0.430671 0.021492,0.903686 -0.364494,0.929007l-2.395077,-0.000638c-0.618346,0.050856 -1.110725,-0.198101 -1.526077,-0.620899c-0.330877,-0.337259 -0.638559,-0.697287 -0.95752,-1.045612c-0.130012,-0.143202 -0.267894,-0.277893 -0.430884,-0.384284c-0.326407,-0.211932 -0.610047,-0.147245 -0.797508,0.193419c-0.190653,0.346834 -0.2347,0.731544 -0.252147,1.11817c-0.026598,0.564938 -0.196824,0.712396 -0.763462,0.738567c-1.210732,0.057026 -2.35997,-0.126819 -3.4275,-0.736865c-0.942412,-0.53834 -1.671192,-1.298822 -2.306134,-2.15889c-1.237542,-1.677363 -2.185275,-3.518568 -3.036405,-5.412544c-0.191717,-0.426628 -0.051493,-0.654943 0.418543,-0.663668c0.782188,-0.015532 1.564163,-0.013405 2.345287,-0.000851c0.318322,0.004893 0.528764,0.187036 0.650689,0.487059c0.422373,1.039442 0.940711,2.028453 1.589696,2.945546c0.172993,0.244061 0.349602,0.487698 0.600686,0.660263c0.277467,0.190655 0.488973,0.127883 0.619833,-0.181715c0.083625,-0.197463 0.119797,-0.407266 0.137671,-0.618345c0.062133,-0.72261 0.06958,-1.445218 -0.037663,-2.165061c-0.067026,-0.450247 -0.320662,-0.741121 -0.769633,-0.826234c-0.228529,-0.043407 -0.195122,-0.128096 -0.084049,-0.25853c0.192781,-0.225975 0.374497,-0.365561 0.735376,-0.365561l2.706804,-0.000425c0.42684,0.08341 0.521743,0.274915 0.579832,0.704522l0.002553,3.007253c-0.004469,0.166396 0.083198,0.6592 0.381944,0.768145c0.238955,0.078943 0.397478,-0.112775 0.540467,-0.2647c0.64856,-0.688352 1.110723,-1.501393 1.52501,-2.342522c0.182356,-0.370879 0.340453,-0.755165 0.493654,-1.139662c0.113416,-0.284491 0.290876,-0.424501 0.61175,-0.419394l2.605734,0.002766c0.076603,0 0.155119,0.000851 0.231081,0.013406c0.438759,0.075538 0.558981,0.264488 0.423437,0.693032c-0.213634,0.673031 -0.629622,1.233925 -1.036461,1.796096c-0.434715,0.60111 -0.898794,1.18243 -1.330317,1.78652c-0.39535,0.554086 -0.363434,0.832405 0.127669,1.312229l0,-0.000001z" id="svg_2"/>
  </g>
  <g id="svg_3"/>
  <g id="svg_4"/>
  <g id="svg_5"/>
  <g id="svg_6"/>
  <g id="svg_7"/>
  <g id="svg_8"/>
  <g id="svg_9"/>
  <g id="svg_10"/>
  <g id="svg_11"/>
  <g id="svg_12"/>
  <g id="svg_13"/>
  <g id="svg_14"/>
  <g id="svg_15"/>
  <g id="svg_16"/>
  <g id="svg_17"/>
 </g>

</svg>