<?xml version="1.0" encoding="UTF-8"?><svg width="416" height="320" xmlns="http://www.w3.org/2000/svg"><g><title>Layer 1</title><g fill="#DADADA" id="svg_1"><path d="m382.399994,51h-67.5l-40.399994,-40.8c0,0 -0.200012,-0.2 -0.299988,-0.2l-0.200012,-0.2v0c-6,-6 -14.100006,-9.8 -23.300003,-9.8h-84c-9.800003,0 -18.5,4.2 -24.599991,10.9l0,0.1l-39.500008,40h-69c-18.599998,0 -33.599998,14.599998 -33.599998,33.199997v202.099991c0,18.600006 15,33.700012 33.599998,33.700012h348.799995c18.5,0 33.600006,-15.100006 33.600006,-33.700012v-202.099991c0,-18.599998 -15.100006,-33.199997 -33.600006,-33.199997l0,0zm-174.399994,218.5c-50.899994,0 -92.400002,-41.600006 -92.400002,-92.600006c0,-51.099991 41.500008,-92.599991 92.400002,-92.599991c51,0 92.399994,41.5 92.399994,92.599991c0,51 -41.399994,92.600006 -92.399994,92.600006zm168.100006,-165c-7.700012,0 -14,-6.300003 -14,-14.099998s6.299988,-14.099998 14,-14.099998c7.699982,0 14,6.299995 14,14.099998s-6.300018,14.099998 -14,14.099998z" id="svg_2"/><path d="m207.999985,106.899986c-38.600021,0 -69.800003,31.300011 -69.800003,70.000008c0,38.600006 31.199997,70 69.800003,70c38.5,0 69.800003,-31.300018 69.800003,-70c0,-38.699997 -31.300003,-70.000008 -69.800003,-70.000008z" id="svg_3"/></g></g></svg>