<?xml version="1.0" encoding="UTF-8"?>
<svg width="20" height="20" xmlns="http://www.w3.org/2000/svg" xmlns:svg="http://www.w3.org/2000/svg">
 <g>
  <title>Layer 1</title>
  <g id="svg_1">
   <g id="svg_2">
    <path d="m15.359056,8.181323c0,-0.253253 -0.126628,-0.379881 -0.379881,-0.379881l-4.878459,0l0,-1.819425c0,-0.133291 -0.066645,-0.246588 -0.199936,-0.339892c-0.133292,-0.066646 -0.259918,-0.053316 -0.37988,0.039987l-5.438282,3.878776c-0.093304,0.053317 -0.139956,0.153284 -0.139956,0.299905s0.046652,0.24659 0.139956,0.299971l5.438282,3.858717c0.13329,0.093303 0.259918,0.10673 0.37988,0.040085c0.133291,-0.066647 0.199936,-0.18001 0.199936,-0.339893l0,-1.819427l4.878459,0c0.10673,0 0.196703,-0.033321 0.270014,-0.099967c0.073212,-0.066647 0.109868,-0.153285 0.109868,-0.259918l-0.000001,-3.359036l0,0zm-5.358308,-8.177417c1.372898,0 2.669157,0.26325 3.888771,0.78975s2.279282,1.239608 3.178995,2.139325s1.612825,1.959381 2.139322,3.178995s0.789753,2.515872 0.789753,3.888772c0,0.919709 -0.119963,1.806097 -0.359886,2.659161c-0.240021,0.852965 -0.576485,1.649381 -1.00968,2.389244c-0.433197,0.739768 -0.953033,1.412888 -1.559509,2.019361c-0.606411,0.606476 -1.279593,1.126408 -2.019361,1.559509c-0.739831,0.433195 -1.53618,0.769756 -2.389311,1.00968c-0.852997,0.239923 -1.739385,0.359886 -2.659094,0.359886s-1.806096,-0.119963 -2.65916,-0.359886c-0.853064,-0.240021 -1.649479,-0.576485 -2.389245,-1.00968s-1.412887,-0.953033 -2.019363,-1.559509c-0.606475,-0.606411 -1.126311,-1.279593 -1.559507,-2.019361c-0.433196,-0.739831 -0.769757,-1.53618 -1.009681,-2.389278c-0.239924,-0.853029 -0.359886,-1.739417 -0.359886,-2.659126s0.119962,-1.806096 0.359886,-2.65916s0.576485,-1.649479 1.009681,-2.389245s0.953032,-1.412887 1.559507,-2.019363s1.279596,-1.12631 2.019362,-1.559507s1.536181,-0.769757 2.389245,-1.009681s1.73945,-0.359886 2.65916,-0.359886l0,0z" fill="#010002" id="svg_3"/>
   </g>
  </g>
  <g id="svg_4"/>
  <g id="svg_5"/>
  <g id="svg_6"/>
  <g id="svg_7"/>
  <g id="svg_8"/>
  <g id="svg_9"/>
  <g id="svg_10"/>
  <g id="svg_11"/>
  <g id="svg_12"/>
  <g id="svg_13"/>
  <g id="svg_14"/>
  <g id="svg_15"/>
  <g id="svg_16"/>
  <g id="svg_17"/>
  <g id="svg_18"/>
 </g>

</svg>