<?xml version="1.0" encoding="UTF-8"?>
<svg width="20" height="20" xmlns="http://www.w3.org/2000/svg" xmlns:svg="http://www.w3.org/2000/svg">
 <g>
  <title>Layer 1</title>
  <g id="svg_1">
   <g id="svg_2">
    <g id="svg_3">
     <path d="m9.999039,0.003906c-5.519812,0 -9.995132,4.47532 -9.995132,9.995132s4.47532,9.995132 9.995132,9.995132s9.995132,-4.47532 9.995132,-9.995132c0,-5.521045 -4.47532,-9.995132 -9.995132,-9.995132zm2.583736,9.993858l-1.637963,0.001233l-0.001232,5.997056l-2.247668,0l0,-5.997015l-1.499255,0l0,-2.066503l1.499254,-0.001233l-0.002507,-1.216903c0,-1.686665 0.457269,-2.712417 2.44256,-2.712417l1.654198,0l0,2.067736l-1.034507,0c-0.77336,0 -0.810843,0.288599 -0.810843,0.827078l-0.002507,1.034505l1.859075,0l-0.218604,2.066462z" fill="#010002" id="svg_4"/>
    </g>
   </g>
   <g id="svg_5"/>
   <g id="svg_6"/>
   <g id="svg_7"/>
   <g id="svg_8"/>
   <g id="svg_9"/>
   <g id="svg_10"/>
   <g id="svg_11"/>
   <g id="svg_12"/>
   <g id="svg_13"/>
   <g id="svg_14"/>
   <g id="svg_15"/>
   <g id="svg_16"/>
   <g id="svg_17"/>
   <g id="svg_18"/>
   <g id="svg_19"/>
  </g>
  <g id="svg_20"/>
  <g id="svg_21"/>
  <g id="svg_22"/>
  <g id="svg_23"/>
  <g id="svg_24"/>
  <g id="svg_25"/>
  <g id="svg_26"/>
  <g id="svg_27"/>
  <g id="svg_28"/>
  <g id="svg_29"/>
  <g id="svg_30"/>
  <g id="svg_31"/>
  <g id="svg_32"/>
  <g id="svg_33"/>
  <g id="svg_34"/>
 </g>

</svg>