<?xml version="1.0" encoding="UTF-8"?>
<svg width="20" height="20" xmlns="http://www.w3.org/2000/svg" xmlns:svg="http://www.w3.org/2000/svg">
 <g>
  <title>Layer 1</title>
  <g id="svg_1">
   <path d="m18.931236,0.003906l-17.863997,0c-0.587173,0 -1.063333,0.476161 -1.063333,1.063333l0,17.863997c0,0.587173 0.476161,1.063334 1.063333,1.063334l17.863997,0c0.587385,0 1.063334,-0.47616 1.063334,-1.063334l0,-17.863997c0,-0.587173 -0.475948,-1.063333 -1.063334,-1.063333zm-4.693552,4.54341l-1.53673,0.000638c-1.204543,0 -1.437839,0.572498 -1.437839,1.412744l0,1.85254l2.87334,0l-0.000853,2.901624l-2.872487,0l0,7.445884l-2.996685,0l0,-7.445884l-2.505638,0l0,-2.901624l2.505637,0l0,-2.139852c0,-2.483308 1.516952,-3.835655 3.731874,-3.835655l2.23938,0.003615l0,2.70597z" id="svg_2"/>
  </g>
  <g id="svg_3"/>
  <g id="svg_4"/>
  <g id="svg_5"/>
  <g id="svg_6"/>
  <g id="svg_7"/>
  <g id="svg_8"/>
  <g id="svg_9"/>
  <g id="svg_10"/>
  <g id="svg_11"/>
  <g id="svg_12"/>
  <g id="svg_13"/>
  <g id="svg_14"/>
  <g id="svg_15"/>
  <g id="svg_16"/>
  <g id="svg_17"/>
 </g>

</svg>