<?xml version="1.0" encoding="UTF-8"?>
<svg width="20" height="20" xmlns="http://www.w3.org/2000/svg" xmlns:svg="http://www.w3.org/2000/svg">
 <g>
  <title>Layer 1</title>
  <g id="svg_1">
   <g id="svg_2">
    <path d="m9.675172,8.084946c0,-1.022269 -0.610651,-2.614325 -1.79014,-2.614325c-0.368925,0 -0.766955,0.184464 -0.995026,0.469797c-0.241693,0.298041 -0.312577,0.681502 -0.312577,1.051374c0,0.951385 0.554302,2.528903 1.776484,2.528903c0.355304,0 0.738765,-0.17084 0.966869,-0.39803c0.32623,-0.328028 0.354389,-0.782373 0.354389,-1.03772z" id="svg_3"/>
    <path d="m19.995239,9.999573c0,-5.520351 -4.475348,-9.995667 -9.995667,-9.995667c-5.520351,0 -9.995667,4.475315 -9.995667,9.995667c0,5.520319 4.475315,9.995667 9.995667,9.995667c5.520319,0 9.995667,-4.475348 9.995667,-9.995667zm-6.919744,-1.921879l0.768785,0l0,1.537503l1.537503,0l0,0.768785l-1.537503,0l0,1.537503l-0.768785,0l0,-1.537503l-1.537502,0l0,-0.768785l1.537502,0l0,-1.537503zm-8.458131,5.719318c0,-0.511576 0.255346,-1.235804 1.094068,-1.73379c0.880534,-0.539735 2.074558,-0.610618 2.713368,-0.653344c-0.199,-0.256262 -0.426189,-0.526112 -0.426189,-0.965921c0,-0.241726 0.070885,-0.383461 0.141768,-0.554336c-0.156304,0.013622 -0.312576,0.028191 -0.45526,0.028191c-1.50572,0 -2.358063,-1.12314 -2.358063,-2.230863c0,-0.653344 0.298074,-1.378487 0.909606,-1.903717c0.810563,-0.667881 1.776484,-0.781492 2.543439,-0.781492l2.926933,0l-0.909605,0.510695l-0.880533,0l0,0c0.326198,0.269882 1.008647,0.83872 1.008647,1.918253c0,1.051374 -0.596996,1.548413 -1.19311,2.017295c-0.184462,0.184463 -0.397998,0.383462 -0.397998,0.696072s0.213536,0.48345 0.368927,0.610649l0.511607,0.397998c0.625187,0.52523 1.19311,1.008679 1.19311,1.990052c0,1.33488 -1.293067,2.685208 -3.736551,2.685208c-2.059139,0.000916 -3.054165,-0.979575 -3.054165,-2.030949z" id="svg_4"/>
    <path d="m8.908216,11.821496c-0.113579,-0.013622 -0.184463,-0.013622 -0.326232,-0.013622c-0.128114,0 -0.895069,0.028158 -1.492065,0.228072c-0.312577,0.113578 -1.222216,0.454345 -1.222216,1.462993s0.98049,1.732876 2.500746,1.732876c1.363951,0 2.088181,-0.653344 2.088181,-1.533878c0,-0.725109 -0.467968,-1.10857 -1.548414,-1.87644z" id="svg_5"/>
   </g>
  </g>
  <g id="svg_6"/>
  <g id="svg_7"/>
  <g id="svg_8"/>
  <g id="svg_9"/>
  <g id="svg_10"/>
  <g id="svg_11"/>
  <g id="svg_12"/>
  <g id="svg_13"/>
  <g id="svg_14"/>
  <g id="svg_15"/>
  <g id="svg_16"/>
  <g id="svg_17"/>
  <g id="svg_18"/>
  <g id="svg_19"/>
  <g id="svg_20"/>
 </g>

</svg>