<?xml version="1.0" encoding="UTF-8"?>
<svg width="20" height="20" xmlns="http://www.w3.org/2000/svg" xmlns:svg="http://www.w3.org/2000/svg">
 <g>
  <title>Layer 1</title>
  <g id="svg_1">
   <path d="m9.999301,0.003906c-5.520117,0 -9.995395,4.475073 -9.995395,9.995395s4.475278,9.995395 9.995395,9.995395s9.995395,-4.475075 9.995395,-9.995395s-4.475279,-9.995395 -9.995395,-9.995395zm5.070196,11.076431c0.465872,0.455032 0.958741,0.883276 1.376962,1.385345c0.185286,0.222098 0.359936,0.451762 0.492867,0.710057c0.189785,0.368321 0.018406,0.772226 -0.311262,0.79411l-2.047752,-0.000409c-0.528861,0.043764 -0.949742,-0.169538 -1.304565,-0.531111c-0.283245,-0.288155 -0.54604,-0.595941 -0.818856,-0.89391c-0.111457,-0.122297 -0.228845,-0.237435 -0.36873,-0.328033c-0.279156,-0.181604 -0.521704,-0.125978 -0.681629,0.165652c-0.162994,0.296743 -0.200215,0.625594 -0.215757,0.955876c-0.022291,0.482846 -0.167902,0.60903 -0.652385,0.63173c-1.035227,0.048469 -2.017486,-0.108595 -2.930416,-0.630502c-0.805357,-0.460352 -1.428702,-1.110078 -1.971879,-1.845697c-1.057723,-1.43402 -1.867784,-3.007923 -2.595633,-4.627024c-0.163812,-0.36464 -0.043969,-0.559742 0.3583,-0.567309c0.668337,-0.012884 1.336673,-0.011249 2.00501,-0.000614c0.271997,0.004295 0.451966,0.159927 0.556469,0.416586c0.361164,0.888593 0.803927,1.734034 1.35876,2.518124c0.147861,0.208803 0.298789,0.416994 0.513728,0.564445c0.237232,0.162789 0.418018,0.109003 0.529884,-0.155836c0.071578,-0.168312 0.102458,-0.34828 0.118002,-0.528657c0.053173,-0.617823 0.059512,-1.235441 -0.032517,-1.85081c-0.057262,-0.385092 -0.273837,-0.633775 -0.657702,-0.70658c-0.19551,-0.037016 -0.166879,-0.109413 -0.071783,-0.221075c0.16504,-0.193056 0.319649,-0.31249 0.628662,-0.31249l2.313614,-0.000409c0.36464,0.071578 0.446445,0.235185 0.495936,0.602484l0.002043,2.571092c-0.004294,0.142134 0.071374,0.563423 0.326602,0.656475c0.20451,0.067488 0.339486,-0.096528 0.461782,-0.225983c0.554834,-0.588782 0.95015,-1.283705 1.304156,-2.002965c0.156245,-0.317194 0.291016,-0.645431 0.421902,-0.974282c0.097346,-0.243161 0.248685,-0.3628 0.523135,-0.358709l2.227926,0.002658c0.065647,0 0.132315,0.000613 0.19735,0.011861c0.375479,0.064217 0.47835,0.225779 0.362188,0.592054c-0.182833,0.57549 -0.538067,1.05486 -0.885323,1.535456c-0.372206,0.514546 -0.769159,1.011095 -1.137685,1.527891c-0.338667,0.472417 -0.311877,0.71026 0.108595,1.120506z" id="svg_2"/>
  </g>
  <g id="svg_3"/>
  <g id="svg_4"/>
  <g id="svg_5"/>
  <g id="svg_6"/>
  <g id="svg_7"/>
  <g id="svg_8"/>
  <g id="svg_9"/>
  <g id="svg_10"/>
  <g id="svg_11"/>
  <g id="svg_12"/>
  <g id="svg_13"/>
  <g id="svg_14"/>
  <g id="svg_15"/>
  <g id="svg_16"/>
  <g id="svg_17"/>
 </g>

</svg>